# xmcd CD database file
#
# Track frame offsets:
#	150
#	17284
#	33042
#	50984
#	66786
#	81905
#	98955
#	113558
#	135505
#	153720
#	169631
#	186286
#
# Disc length: 2671 seconds
#
# Revision: 0
# Processed by: cddbd v1.4PL0 Copyright (c) Steve Scherf et al.
# Submitted via: CDex 1.40Release
#
DISCID=950a6d0c
DTITLE=Carl Rose - Love, Life, and Country Music (As I See it)
DYEAR=2003
DGENRE=Country
TTITLE0=(1) Yeller Haired Woman - Carl Rose
TTITLE1=(2)The Girls Start Lookin' Better - Carl Rose
TTITLE2=(3) Somebody Else - Carl Rose
TTITLE3=(4) The Barfly - Carl Rose
TTITLE4=(5) The Friday Night Fiddler - Carl Rose
TTITLE5=(6)Two Steppin' Out (Two Steps Behind) - Carl Rose
TTITLE6=(7) Line Dance in 3-4 Time - Carl Rose
TTITLE7=(8) From a Clinging Vine to a Rambling Rose - Carl Rose
TTITLE8=(9) I Wish that I Could Call in Sick Once More - Carl Rose
TTITLE9=(10) Gonna Hold You to it - Carl Rose
TTITLE10=(11)The Law's the Law - Carl Rose
TTITLE11=(12) Why I'm in this Honky-Tonk Tonight - Carl Rose
EXTD=YEAR: 2003 ID3G: 2
EXTT0=
EXTT1=
EXTT2=
EXTT3=
EXTT4=
EXTT5=
EXTT6=
EXTT7=
EXTT8=
EXTT9=
EXTT10=
EXTT11=
PLAYORDER=
